# Blender 3.4.1
# www.blender.org
mtllib three_1.mtl
o Cube
v 0.411118 0.010385 -0.795900
v 0.466136 -0.010227 -0.767332
v 0.459109 -0.010227 -0.927852
v 0.406968 0.010385 -0.838691
v 0.458856 -0.010227 -0.930245
v 0.441890 -0.010227 -0.996734
v 0.447712 -0.010385 -0.902703
v 0.441890 0.010227 -0.996734
v 0.458856 0.010227 -0.930245
v 0.466136 0.010227 -0.767332
v 0.456198 -0.010385 -0.822415
v 0.459109 0.010227 -0.927851
v 0.406968 0.010385 0.838691
v 0.441890 -0.010227 0.996734
v 0.458856 -0.010227 0.930245
v 0.411118 0.010385 0.795900
v 0.459109 -0.010227 0.927851
v 0.466136 -0.010227 0.767332
v 0.456198 -0.010385 0.822415
v 0.466136 0.010227 0.767332
v 0.459109 0.010227 0.927852
v 0.441890 0.010227 0.996734
v 0.447712 -0.010385 0.902703
v 0.458856 0.010227 0.930245
v -0.435828 0.010385 -0.838691
v -0.470750 -0.010227 -0.996734
v -0.487716 -0.010227 -0.930245
v -0.439978 0.010385 -0.795900
v -0.487969 -0.010227 -0.927851
v -0.494997 -0.010227 -0.767332
v -0.485058 -0.010385 -0.822415
v -0.494997 0.010227 -0.767332
v -0.487969 0.010227 -0.927852
v -0.470750 0.010227 -0.996734
v -0.476572 -0.010385 -0.902703
v -0.487716 0.010227 -0.930245
v -0.439978 0.010385 0.795900
v -0.494997 -0.010227 0.767332
v -0.487969 -0.010227 0.927852
v -0.470750 -0.010227 0.996734
v -0.435828 0.010385 0.838691
v -0.487716 -0.010227 0.930245
v -0.476572 -0.010385 0.902703
v -0.470750 0.010227 0.996734
v -0.487716 0.010227 0.930245
v -0.485058 -0.010385 0.822415
v -0.487969 0.010227 0.927851
v -0.494997 0.010227 0.767332
v 0.447712 0.010385 -0.902703
v 0.456198 0.010385 -0.822415
v -0.476572 0.010385 0.902703
v -0.485058 0.010385 0.822415
v 0.456198 0.010385 0.822415
v 0.447712 0.010385 0.902703
v -0.485058 0.010385 -0.822415
v -0.476572 0.010385 -0.902703
v 0.444963 0.010385 -0.839914
v 0.449562 0.010385 -0.796406
v -0.473823 0.010385 0.839914
v -0.478421 0.010385 0.796406
v 0.449562 0.010385 0.796406
v 0.444963 0.010385 0.839914
v -0.478421 0.010385 -0.796406
v -0.473823 0.010385 -0.839914
vn -0.9945 -0.0000 -0.1051
vn 0.9945 -0.0000 -0.1051
vn 0.9945 -0.0000 0.1051
vn -0.0000 -0.0000 1.0000
vn -0.0000 1.0000 -0.0000
vn -1.0000 -0.0000 -0.0000
vn -0.0000 -0.0000 -1.0000
vn 1.0000 -0.0000 -0.0000
vn -0.0000 -1.0000 -0.0000
vn 0.9385 0.3427 -0.0411
vn 0.7368 0.6495 -0.1880
vn 0.7368 -0.6495 -0.1880
vn 0.9385 -0.3427 -0.0411
vn 0.7368 0.6495 0.1880
vn 0.9385 0.3427 0.0411
vn 0.9385 -0.3427 0.0411
vn 0.7368 -0.6495 0.1880
vn -0.7368 0.6495 -0.1880
vn -0.9385 0.3427 -0.0411
vn -0.9385 -0.3427 -0.0411
vn -0.7368 -0.6495 -0.1880
vn -0.9385 0.3427 0.0411
vn -0.7368 0.6495 0.1880
vn -0.7368 -0.6495 0.1880
vn -0.9385 -0.3427 0.0411
vn 0.8231 0.5612 -0.0870
vn -0.9990 -0.0000 0.0437
vn 0.8231 -0.5612 -0.0870
vn -0.9690 -0.0000 0.2472
vn -0.8231 -0.5612 0.0870
vn 0.9690 -0.0000 -0.2472
vn -0.8231 0.5612 0.0870
vn 0.9990 -0.0000 -0.0437
vn 0.8231 0.5612 0.0870
vn -0.9690 -0.0000 -0.2472
vn 0.8231 -0.5612 0.0870
vn -0.9990 -0.0000 -0.0437
vn -0.8231 0.5612 -0.0870
vn 0.9690 -0.0000 0.2472
vn -0.8231 -0.5612 -0.0870
vn 0.9990 -0.0000 0.0437
vn -0.0000 -0.9768 -0.2141
vn -0.0000 0.9768 -0.2141
vn 0.9008 -0.4343 -0.0000
vn 0.9008 0.4343 -0.0000
vn -0.9008 0.4343 -0.0000
vn -0.0000 0.9768 0.2141
vn -0.9008 -0.4343 -0.0000
vn -0.0000 -0.9768 0.2141
vn -0.9945 -0.0000 0.1051
vt -0.019752 0.036752
vt 0.629345 0.525186
vt 0.376901 0.528769
vt 0.376901 0.516977
vt 0.376901 0.506810
vt -0.014823 0.011587
vt 0.630521 0.519820
vt 0.376901 0.506445
vt 0.376901 0.496278
vt 0.376901 0.493693
vt 0.370208 0.511792
vt 0.623099 0.493693
vt 0.368693 0.500000
vt 0.373106 0.508338
vt 0.623099 0.506445
vt 0.375000 0.528769
vt 0.623099 0.528769
vt 0.372415 0.521861
vt 0.373172 0.508639
vt 0.623099 0.506810
vt -0.014822 0.998039
vt 0.630521 0.730180
vt 0.376901 0.756307
vt 0.376901 0.753722
vt 0.376901 0.743555
vt -0.019752 0.972874
vt 0.629345 0.724813
vt 0.376901 0.743190
vt 0.376901 0.733023
vt 0.376901 0.721231
vt 0.372415 0.728139
vt 0.375000 0.721231
vt 0.623099 0.721231
vt 0.373172 0.741361
vt 0.623099 0.743190
vt 0.623099 0.756307
vt 0.368693 0.750000
vt 0.370208 0.738208
vt 0.623099 0.743555
vt 0.373106 0.741662
vt 0.986469 0.011587
vt 0.869479 0.519820
vt 0.376901 0.256307
vt 0.376901 0.253722
vt 0.376901 0.243555
vt 0.991398 0.036753
vt 0.870655 0.525187
vt 0.376901 0.243189
vt 0.376901 0.233023
vt 0.376901 0.221231
vt 0.127585 0.521861
vt 0.623099 0.221231
vt 0.125000 0.528769
vt 0.126828 0.508639
vt 0.623099 0.243189
vt 0.623099 0.256307
vt 0.131307 0.500000
vt 0.129792 0.511792
vt 0.623099 0.243556
vt 0.126894 0.508338
vt 0.991398 0.972874
vt 0.870655 0.724813
vt 0.376901 0.028769
vt 0.376901 0.016977
vt 0.376901 0.008638
vt 0.376901 0.000000
vt 0.376901 0.993693
vt 0.986469 0.998039
vt 0.869479 0.730180
vt 0.376901 0.996278
vt 0.376901 0.008338
vt 0.129792 0.738208
vt 0.623099 0.993693
vt 0.623099 0.000000
vt 0.131307 0.750000
vt 0.126894 0.741662
vt 0.623099 0.008338
vt 0.127585 0.728139
vt 0.126828 0.741361
vt 0.623099 0.008638
vt 0.623099 0.028769
vt 0.125000 0.721231
vt 0.625000 0.500489
vt 0.625000 0.495208
vt 0.629792 0.511792
vt 0.625000 0.521861
vt 0.625000 0.512765
vt 0.627585 0.521861
vt 0.625000 0.003454
vt 0.625000 0.995208
vt 0.870207 0.738208
vt 0.625000 0.013523
vt 0.625000 0.021861
vt 0.872415 0.728139
vt 0.625000 0.737235
vt 0.627585 0.728139
vt 0.625000 0.749511
vt 0.625000 0.754792
vt 0.629792 0.738208
vt 0.625000 0.237235
vt 0.625000 0.228139
vt 0.872415 0.521861
vt 0.625000 0.249511
vt 0.625000 0.254792
vt 0.870207 0.511792
vt 0.630507 0.519667
vt 0.629311 0.525123
vt 0.869492 0.730333
vt 0.870689 0.724877
vt 0.629311 0.724877
vt 0.630507 0.730333
vt 0.870689 0.525123
vt 0.869492 0.519667
s 0
usemtl Material
f 15/25/1 24/39/1 21/35/1 17/28/1
f 45/77/2 42/71/2 39/65/2 47/80/2
f 27/45/3 36/59/3 33/55/3 29/48/3
f 34/56/4 26/43/4 6/10/4 8/12/4
f 10/17/6 2/3/6 18/30/6 20/33/6
f 22/36/7 14/23/7 40/67/7 44/73/7
f 48/81/8 38/63/8 30/50/8 32/52/8
f 31/51/9 35/58/9 7/11/9 11/18/9 19/31/9 23/38/9 43/72/9 46/78/9
f 50/86/10 2/3/10 3/4/10
f 49/83/11 5/8/11 6/9/11
f 7/11/12 8/13/12 9/14/12
f 10/16/13 11/18/13 12/19/13
f 54/98/14 14/23/14 15/24/14
f 53/95/15 17/28/15 18/29/15
f 19/31/16 20/32/16 21/34/16
f 22/37/17 23/38/17 24/40/17
f 56/104/18 26/43/18 27/44/18
f 55/100/19 29/48/19 30/49/19
f 31/51/20 32/53/20 33/54/20
f 34/57/21 35/58/21 36/60/21
f 52/93/22 38/63/22 39/64/22
f 40/67/23 51/90/23 42/70/23
f 43/72/24 44/75/24 45/76/24
f 46/78/25 47/79/25 48/82/25
f 49/83/26 50/87/26 3/5/26 5/8/26
f 2/3/27 10/17/27 12/20/27 3/5/27
f 11/18/28 7/11/28 9/14/28 12/19/28
f 8/12/29 6/10/29 5/8/29 9/15/29
f 46/78/30 43/72/30 45/76/30 47/79/30
f 44/74/31 40/66/31 42/71/31 45/77/31
f 51/89/32 52/92/32 39/65/32 42/71/32
f 38/63/33 48/81/33 47/80/33 39/65/33
f 53/95/34 54/97/34 15/25/34 17/28/34
f 14/23/35 22/36/35 24/39/35 15/25/35
f 23/38/36 19/31/36 21/34/36 24/40/36
f 20/33/37 18/30/37 17/28/37 21/35/37
f 55/100/38 56/103/38 27/45/38 29/48/38
f 26/43/39 34/56/39 36/59/39 27/45/39
f 35/58/40 31/51/40 33/54/40 36/60/40
f 32/52/41 30/50/41 29/48/41 33/55/41
f 7/11/42 35/58/42 34/57/42 8/13/42
f 56/104/43 49/84/43 6/10/43 26/43/43
f 19/31/44 11/18/44 10/17/44 20/33/44
f 50/88/45 53/96/45 18/30/45 2/3/45
f 30/50/46 38/63/46 52/93/46 55/101/46
f 40/67/47 14/23/47 54/98/47 51/90/47
f 48/82/48 32/53/48 31/51/48 46/78/48
f 22/37/49 44/75/49 43/72/49 23/38/49
f 3/5/50 12/20/50 9/15/50 5/8/50
f 57/106/5 58/107/5 50/88/5 49/85/5
f 59/108/5 60/109/5 52/94/5 51/91/5
f 61/110/5 62/111/5 54/99/5 53/96/5
f 63/112/5 64/113/5 56/105/5 55/102/5
f 64/113/5 57/106/5 49/85/5 56/105/5
f 58/107/5 61/110/5 53/96/5 50/88/5
f 60/109/5 63/112/5 55/102/5 52/94/5
f 62/111/5 59/108/5 51/91/5 54/99/5
f 4/7/5 1/2/5 58/107/5 57/106/5
f 41/69/5 37/62/5 60/109/5 59/108/5
f 16/27/5 13/22/5 62/111/5 61/110/5
f 28/47/5 25/42/5 64/113/5 63/112/5
f 25/42/5 4/7/5 57/106/5 64/113/5
f 1/2/5 16/27/5 61/110/5 58/107/5
f 37/62/5 28/47/5 63/112/5 60/109/5
f 13/22/5 41/69/5 59/108/5 62/111/5
usemtl æè´¨.002
f 1/1/5 4/6/5 25/41/5 28/46/5 37/61/5 41/68/5 13/21/5 16/26/5
